<?xml version="1.0" encoding="UTF-8" standalone="no"?><!DOCTYPE svg PUBLIC "-//W3C//DTD SVG 1.1//EN" "http://www.w3.org/Graphics/SVG/1.1/DTD/svg11.dtd"><svg width="100%" height="100%" viewBox="0 0 18 15" version="1.1" xmlns="http://www.w3.org/2000/svg" xmlns:xlink="http://www.w3.org/1999/xlink" xml:space="preserve" xmlns:serif="http://www.serif.com/" style="fill-rule:evenodd;clip-rule:evenodd;stroke-linejoin:round;stroke-miterlimit:2;"><path id="Combined-Shape" d="M9.751,10.388l-1.523,-0l-0.155,0.577c-0.587,2.19 -2.838,3.49 -5.029,2.903c-2.19,-0.587 -3.49,-2.838 -2.903,-5.028l1.553,-5.796c0.587,-2.19 2.838,-3.49 5.028,-2.903c0.951,0.255 1.733,0.823 2.267,1.563c0.534,-0.74 1.317,-1.308 2.267,-1.563c2.19,-0.587 4.442,0.713 5.029,2.903l1.552,5.796c0.587,2.19 -0.713,4.441 -2.903,5.028c-2.19,0.587 -4.442,-0.713 -5.028,-2.903l-0.155,-0.577Zm4.165,1.901c1.361,-0 2.464,-1.145 2.464,-2.557c-0,-1.411 -1.103,-2.556 -2.464,-2.556c-1.36,0 -2.463,1.145 -2.463,2.556c-0,1.412 1.103,2.557 2.463,2.557Zm-9.854,-0c1.361,-0 2.464,-1.145 2.464,-2.557c-0,-1.411 -1.103,-2.556 -2.464,-2.556c-1.36,0 -2.463,1.145 -2.463,2.556c-0,1.412 1.103,2.557 2.463,2.557Z" style="fill:#cabfff;"/></svg>