<?xml version="1.0" encoding="UTF-8" standalone="no"?><!DOCTYPE svg PUBLIC "-//W3C//DTD SVG 1.1//EN" "http://www.w3.org/Graphics/SVG/1.1/DTD/svg11.dtd"><svg width="100%" height="100%" viewBox="0 0 32 27" version="1.1" xmlns="http://www.w3.org/2000/svg" xmlns:xlink="http://www.w3.org/1999/xlink" xml:space="preserve" xmlns:serif="http://www.serif.com/" style="fill-rule:evenodd;clip-rule:evenodd;stroke-linejoin:round;stroke-miterlimit:2;"><path id="Combined-Shape" d="M2.34,26.52l26.52,0c1.292,0 2.34,-1.048 2.34,-2.34l0,-17.16c0,-1.292 -1.048,-2.34 -2.34,-2.34l-16.38,0l-3.995,-3.995c-0.438,-0.438 -1.034,-0.685 -1.654,-0.685l-4.491,0c-1.292,0 -2.34,1.048 -2.34,2.34l-0,21.84c-0,1.292 1.048,2.34 2.34,2.34Zm5.946,-3.867c-2.31,-1.456 -3.845,-4.03 -3.845,-6.962c0,-4.541 3.681,-8.222 8.223,-8.222c4.142,-0 7.569,3.063 8.139,7.048l2.433,-0c2.595,-0 4.698,2.103 4.698,4.698c0,2.595 -2.103,4.699 -4.698,4.699l-11.747,-0c-1.238,-0 -2.364,-0.479 -3.203,-1.261Z" style="fill:#fff;fill-opacity:0.3;"/></svg>