<?xml version="1.0" encoding="UTF-8" standalone="no"?><!DOCTYPE svg PUBLIC "-//W3C//DTD SVG 1.1//EN" "http://www.w3.org/Graphics/SVG/1.1/DTD/svg11.dtd"><svg width="100%" height="100%" viewBox="0 0 28 28" version="1.1" xmlns="http://www.w3.org/2000/svg" xmlns:xlink="http://www.w3.org/1999/xlink" xml:space="preserve" xmlns:serif="http://www.serif.com/" style="fill-rule:evenodd;clip-rule:evenodd;stroke-linejoin:round;stroke-miterlimit:2;"><g><path id="Combined-Shape" d="M6.229,24.97c3.399,-2.282 5.636,-6.161 5.636,-10.563c-0,-4.934 -2.812,-9.212 -6.92,-11.319c2.342,-1.929 5.343,-3.088 8.615,-3.088c7.489,0 13.56,6.071 13.56,13.56c-0,7.489 -6.071,13.56 -13.56,13.56c-2.701,-0 -5.217,-0.79 -7.331,-2.15Z" style="fill-opacity:0.3;"/><path id="Combined-Shape1" serif:id="Combined-Shape" d="M4.056,23.232c-2.504,-2.461 -4.056,-5.885 -4.056,-9.672c-0,-3.275 1.161,-6.278 3.093,-8.621c3.223,1.922 5.382,5.443 5.382,9.468c-0,3.611 -1.736,6.815 -4.419,8.825Z"/></g></svg>