<?xml version="1.0" encoding="UTF-8" standalone="no"?><!DOCTYPE svg PUBLIC "-//W3C//DTD SVG 1.1//EN" "http://www.w3.org/Graphics/SVG/1.1/DTD/svg11.dtd"><svg width="100%" height="100%" viewBox="0 0 25 31" version="1.1" xmlns="http://www.w3.org/2000/svg" xmlns:xlink="http://www.w3.org/1999/xlink" xml:space="preserve" xmlns:serif="http://www.serif.com/" style="fill-rule:evenodd;clip-rule:evenodd;stroke-linejoin:round;stroke-miterlimit:2;"><path id="Path-50" d="M0,2.189l11.742,-2.138c0.375,-0.068 0.76,-0.068 1.134,0l11.743,2.138l-0,13.87c-0,4.384 -2.326,8.459 -6.155,10.782l-5.339,3.241c-0.499,0.302 -1.132,0.302 -1.631,-0l-5.339,-3.241c-3.829,-2.323 -6.155,-6.398 -6.155,-10.782l0,-13.87Zm11.04,16.061c-0.369,0 -0.737,-0.143 -1.032,-0.429l-2.949,-2.864c-0.59,-0.573 -0.59,-1.432 -0,-2.004c0.589,-0.573 1.548,-0.573 2.064,-0l1.917,1.861l4.866,-4.725c0.59,-0.573 1.474,-0.573 2.064,-0c0.59,0.573 0.59,1.432 0,2.004l-5.898,5.728c-0.295,0.286 -0.663,0.429 -1.032,0.429Z" style="fill:#939393;"/></svg>