<?xml version="1.0" encoding="UTF-8" standalone="no"?><!DOCTYPE svg PUBLIC "-//W3C//DTD SVG 1.1//EN" "http://www.w3.org/Graphics/SVG/1.1/DTD/svg11.dtd"><svg width="100%" height="100%" viewBox="0 0 24 26" version="1.1" xmlns="http://www.w3.org/2000/svg" xmlns:xlink="http://www.w3.org/1999/xlink" xml:space="preserve" xmlns:serif="http://www.serif.com/" style="fill-rule:evenodd;clip-rule:evenodd;stroke-linejoin:round;stroke-miterlimit:2;"><g><g><path id="Combined-Shape" d="M19.271,13.341l2.223,0c1.228,0 2.224,0.996 2.224,2.224c-0,1.228 -0.996,2.223 -2.224,2.223l-19.27,0c-1.228,0 -2.224,-0.995 -2.224,-2.223c-0,-1.228 0.996,-2.224 2.224,-2.224l2.223,0l0.828,-7.448c0.372,-3.355 3.208,-5.893 6.584,-5.893c3.375,-0 6.211,2.538 6.584,5.893l0.828,7.448Z" style="fill:#b8abff;"/><path id="Rectangle-23" d="M14.824,22.235c-0,-1.636 -1.329,-2.964 -2.965,-2.964c-1.636,-0 -2.965,1.328 -2.965,2.964c0,1.637 1.329,2.965 2.965,2.965c1.636,-0 2.965,-1.328 2.965,-2.965Z" style="fill:#b8abff;fill-opacity:0.3;"/></g></g></svg>