<?xml version="1.0" encoding="UTF-8" standalone="no"?><!DOCTYPE svg PUBLIC "-//W3C//DTD SVG 1.1//EN" "http://www.w3.org/Graphics/SVG/1.1/DTD/svg11.dtd"><svg width="100%" height="100%" viewBox="0 0 25 29" version="1.1" xmlns="http://www.w3.org/2000/svg" xmlns:xlink="http://www.w3.org/1999/xlink" xml:space="preserve" xmlns:serif="http://www.serif.com/" style="fill-rule:evenodd;clip-rule:evenodd;stroke-linejoin:round;stroke-miterlimit:2;"><g><path id="Combined-Shape" d="M12.029,28.57c-6.643,-0 -12.029,-5.386 -12.029,-12.029c0,-6.644 5.386,-12.03 12.029,-12.03c6.644,0 12.03,5.386 12.03,12.03c-0,6.643 -5.386,12.029 -12.03,12.029Z" style="fill:#84c8ff;fill-opacity:0.3;"/><path id="Combined-Shape1" serif:id="Combined-Shape" d="M13.533,4.604c-0.492,-0.061 -0.994,-0.093 -1.504,-0.093c-0.509,0 -1.011,0.032 -1.503,0.093l-0,-1.597l-1.504,0c-0.83,0 -1.504,-0.673 -1.504,-1.503c0,-0.831 0.674,-1.504 1.504,-1.504l6.015,-0c0.83,-0 1.504,0.673 1.504,1.504c-0,0.83 -0.674,1.503 -1.504,1.503l-1.504,0l0,1.597Z" style="fill:#84c8ff;"/><path id="Combined-Shape2" serif:id="Combined-Shape" d="M19.112,6.816l1.241,-1.242c0.587,-0.587 1.539,-0.587 2.127,0c0.587,0.588 0.587,1.54 -0,2.127l-1.177,1.177c-0.641,-0.775 -1.378,-1.469 -2.191,-2.062Z" style="fill:#84c8ff;"/><path id="Path-107" d="M11.974,8.27l0.111,0c0.393,0 0.72,0.303 0.75,0.694l0.636,8.271c0.032,0.414 -0.278,0.775 -0.692,0.807c-0.019,0.001 -0.038,0.002 -0.058,0.002l-1.383,0c-0.416,0 -0.752,-0.336 -0.752,-0.752c-0,-0.019 0.001,-0.038 0.002,-0.057l0.636,-8.271c0.03,-0.391 0.357,-0.694 0.75,-0.694Z" style="fill:#84c8ff;"/></g></svg>