<?xml version="1.0" encoding="UTF-8" standalone="no"?><!DOCTYPE svg PUBLIC "-//W3C//DTD SVG 1.1//EN" "http://www.w3.org/Graphics/SVG/1.1/DTD/svg11.dtd"><svg width="100%" height="100%" viewBox="0 0 30 30" version="1.1" xmlns="http://www.w3.org/2000/svg" xmlns:xlink="http://www.w3.org/1999/xlink" xml:space="preserve" xmlns:serif="http://www.serif.com/" style="fill-rule:evenodd;clip-rule:evenodd;stroke-linejoin:round;stroke-miterlimit:2;"><g><rect id="bound" x="0" y="0" width="29.76" height="29.76" style="fill:none;"/><path id="Path-107" d="M13.594,9.3l0.105,-0c0.318,-0 0.585,0.241 0.617,0.558l0.564,5.642l4.028,2.301c0.193,0.111 0.312,0.316 0.312,0.539l-0,0.26c-0,0.262 -0.212,0.474 -0.474,0.474c-0.042,-0 -0.084,-0.006 -0.124,-0.017l-5.728,-1.562c-0.287,-0.078 -0.478,-0.349 -0.455,-0.646l0.537,-6.977c0.025,-0.323 0.294,-0.572 0.618,-0.572Z"/><path id="Combined-Shape" d="M19.357,3.515c-1.566,-0.666 -3.288,-1.035 -5.097,-1.035c-7.191,-0 -13.02,5.829 -13.02,13.02c-0,7.191 5.829,13.02 13.02,13.02c7.191,-0 13.02,-5.829 13.02,-13.02c-0,-1.221 -0.168,-2.403 -0.483,-3.524l-2.387,0.67c0.258,0.92 0.39,1.877 0.39,2.854c-0,5.821 -4.719,10.54 -10.54,10.54c-5.821,-0 -10.54,-4.719 -10.54,-10.54c-0,-5.821 4.719,-10.54 10.54,-10.54c1.18,-0 2.328,0.193 3.412,0.564l-1.477,1.759c-0.086,0.103 -0.136,0.23 -0.144,0.364c-0.019,0.342 0.242,0.634 0.584,0.654l6.035,0.342c0.06,0.003 0.12,-0.002 0.179,-0.016c0.333,-0.08 0.539,-0.414 0.459,-0.747l-1.399,-5.867c-0.031,-0.129 -0.103,-0.245 -0.205,-0.331c-0.262,-0.22 -0.653,-0.186 -0.873,0.077l-1.474,1.756Z" style="fill-opacity:0.3;"/></g></svg>