<?xml version="1.0" encoding="UTF-8" standalone="no"?><!DOCTYPE svg PUBLIC "-//W3C//DTD SVG 1.1//EN" "http://www.w3.org/Graphics/SVG/1.1/DTD/svg11.dtd"><svg width="100%" height="100%" viewBox="0 0 29 29" version="1.1" xmlns="http://www.w3.org/2000/svg" xmlns:xlink="http://www.w3.org/1999/xlink" xml:space="preserve" xmlns:serif="http://www.serif.com/" style="fill-rule:evenodd;clip-rule:evenodd;stroke-linejoin:round;stroke-miterlimit:2;"><path id="Combined-Shape" d="M28.8,14.4c0,-7.948 -6.452,-14.4 -14.4,-14.4c-7.948,-0 -14.4,6.452 -14.4,14.4c0,7.948 6.452,14.4 14.4,14.4c7.948,0 14.4,-6.452 14.4,-14.4Zm-22.798,3.679c-0.441,-0.662 -0.262,-1.556 0.399,-1.997c0.662,-0.441 1.556,-0.262 1.997,0.399c1.666,2.499 3.632,3.679 6.002,3.679c2.37,-0 4.336,-1.18 6.002,-3.679c0.441,-0.661 1.335,-0.84 1.997,-0.399c0.661,0.441 0.84,1.335 0.399,1.997c-2.174,3.261 -5.008,4.961 -8.398,4.961c-3.39,0 -6.224,-1.7 -8.398,-4.961Z" style="fill-opacity:0.4;"/></svg>