<?xml version="1.0" encoding="UTF-8" standalone="no"?><!DOCTYPE svg PUBLIC "-//W3C//DTD SVG 1.1//EN" "http://www.w3.org/Graphics/SVG/1.1/DTD/svg11.dtd"><svg width="100%" height="100%" viewBox="0 0 18 15" version="1.1" xmlns="http://www.w3.org/2000/svg" xmlns:xlink="http://www.w3.org/1999/xlink" xml:space="preserve" xmlns:serif="http://www.serif.com/" style="fill-rule:evenodd;clip-rule:evenodd;stroke-linejoin:round;stroke-miterlimit:2;"><g><path id="Rectangle-154" d="M12.997,3.005l-1.111,-1.11l-2.775,2.775l1.11,1.111l2.776,-2.776Zm1.665,0.555l-11.102,11.102c-0.306,0.306 -0.803,0.306 -1.11,-0l-2.22,-2.221c-0.307,-0.306 -0.307,-0.803 -0,-1.11l11.101,-11.101c0.307,-0.307 0.804,-0.307 1.11,-0l2.221,2.22c0.306,0.307 0.306,0.804 -0,1.11Z" style="fill-rule:nonzero;"/><path id="Combined-Shape" d="M13.333,6.661l0.785,-0c0.217,-0 0.393,0.176 0.393,0.392l-0,0.785c-0,0.217 -0.176,0.393 -0.393,0.393l-0.785,-0c-0.216,-0 -0.392,-0.176 -0.392,-0.393l-0,-0.785c-0,-0.216 0.176,-0.392 0.392,-0.392Zm2.355,-2.355l0.785,-0c0.217,-0 0.393,0.176 0.393,0.392l-0,0.785c-0,0.217 -0.176,0.393 -0.393,0.393l-0.785,-0c-0.217,-0 -0.392,-0.176 -0.392,-0.393l-0,-0.785c-0,-0.216 0.175,-0.392 0.392,-0.392Zm0.785,3.14l0.785,-0c0.217,-0 0.393,0.176 0.393,0.392l-0,0.785c-0,0.217 -0.176,0.393 -0.393,0.393l-0.785,-0c-0.217,-0 -0.392,-0.176 -0.392,-0.393l-0,-0.785c-0,-0.216 0.175,-0.392 0.392,-0.392Z" style="fill-opacity:0.3;"/></g></svg>