<?xml version="1.0" encoding="UTF-8" standalone="no"?><!DOCTYPE svg PUBLIC "-//W3C//DTD SVG 1.1//EN" "http://www.w3.org/Graphics/SVG/1.1/DTD/svg11.dtd"><svg width="100%" height="100%" viewBox="0 0 24 24" version="1.1" xmlns="http://www.w3.org/2000/svg" xmlns:xlink="http://www.w3.org/1999/xlink" xml:space="preserve" xmlns:serif="http://www.serif.com/" style="fill-rule:evenodd;clip-rule:evenodd;stroke-linejoin:round;stroke-miterlimit:2;"><g><rect id="bound" x="0" y="0" width="23.04" height="23.04" style="fill:none;"/><path id="Combined-Shape" d="M5.28,3.84l3.84,0c0.795,0 1.44,0.645 1.44,1.44l-0,0.96c-0,0.795 -0.645,1.44 -1.44,1.44l-3.84,0c-0.795,0 -1.44,-0.645 -1.44,-1.44l-0,-0.96c-0,-0.795 0.645,-1.44 1.44,-1.44Zm8.64,11.52l3.84,0c0.795,0 1.44,0.645 1.44,1.44l-0,0.96c-0,0.795 -0.645,1.44 -1.44,1.44l-3.84,-0c-0.795,-0 -1.44,-0.645 -1.44,-1.44l-0,-0.96c-0,-0.795 0.645,-1.44 1.44,-1.44Z"/><path id="Combined-Shape1" serif:id="Combined-Shape" d="M5.28,9.6l3.84,0c0.795,0 1.44,0.645 1.44,1.44l-0,6.72c-0,0.795 -0.645,1.44 -1.44,1.44l-3.84,0c-0.795,0 -1.44,-0.645 -1.44,-1.44l-0,-6.72c-0,-0.795 0.645,-1.44 1.44,-1.44Zm8.64,-5.76l3.84,0c0.795,0 1.44,0.645 1.44,1.44l-0,6.72c-0,0.795 -0.645,1.44 -1.44,1.44l-3.84,0c-0.795,0 -1.44,-0.645 -1.44,-1.44l-0,-6.72c-0,-0.795 0.645,-1.44 1.44,-1.44Z" style="fill-opacity:0.3;"/></g></svg>