<?xml version="1.0" encoding="UTF-8" standalone="no"?><!DOCTYPE svg PUBLIC "-//W3C//DTD SVG 1.1//EN" "http://www.w3.org/Graphics/SVG/1.1/DTD/svg11.dtd"><svg width="100%" height="100%" viewBox="0 0 9 10" version="1.1" xmlns="http://www.w3.org/2000/svg" xmlns:xlink="http://www.w3.org/1999/xlink" xml:space="preserve" xmlns:serif="http://www.serif.com/" style="fill-rule:evenodd;clip-rule:evenodd;stroke-linejoin:round;stroke-miterlimit:2;"><path id="Combined-Shape" d="M0,4.164c0,-2.498 1.666,-4.164 4.164,-4.164c2.498,0 4.164,2.082 4.164,4.164c-0,1.295 -1.209,3.073 -3.625,5.335c-0.309,0.288 -0.784,0.3 -1.107,0.028c-2.397,-2.028 -3.596,-3.815 -3.596,-5.363Zm4.164,0.833c0.766,-0 1.388,-0.622 1.388,-1.388c-0,-0.767 -0.622,-1.388 -1.388,-1.388c-0.767,-0 -1.388,0.621 -1.388,1.388c-0,0.766 0.621,1.388 1.388,1.388Z" style="fill:#ffcd00;fill-rule:nonzero;"/></svg>