<?xml version="1.0" encoding="UTF-8" standalone="no"?><!DOCTYPE svg PUBLIC "-//W3C//DTD SVG 1.1//EN" "http://www.w3.org/Graphics/SVG/1.1/DTD/svg11.dtd"><svg width="100%" height="100%" viewBox="0 0 15 15" version="1.1" xmlns="http://www.w3.org/2000/svg" xmlns:xlink="http://www.w3.org/1999/xlink" xml:space="preserve" xmlns:serif="http://www.serif.com/" style="fill-rule:evenodd;clip-rule:evenodd;stroke-linejoin:round;stroke-miterlimit:2;"><path d="M7.2,-0c-3.984,-0 -7.2,3.216 -7.2,7.2c0,3.984 3.216,7.2 7.2,7.2c3.984,-0 7.2,-3.216 7.2,-7.2c-0,-3.984 -3.216,-7.2 -7.2,-7.2Zm-0.912,3.264l1.552,-0l0,1.312l-1.552,-0l0,-1.312Zm2.464,7.728l-3.12,-0l0,-0.912l0.848,-0l0,-3.664l-0.848,-0l0,-0.912l2.272,-0l0,4.576l0.848,-0l0,0.912Z" style="fill:#0062ff;fill-rule:nonzero;"/></svg>