<?xml version="1.0" encoding="UTF-8" standalone="no"?><!DOCTYPE svg PUBLIC "-//W3C//DTD SVG 1.1//EN" "http://www.w3.org/Graphics/SVG/1.1/DTD/svg11.dtd"><svg width="100%" height="100%" viewBox="0 0 14 14" version="1.1" xmlns="http://www.w3.org/2000/svg" xmlns:xlink="http://www.w3.org/1999/xlink" xml:space="preserve" xmlns:serif="http://www.serif.com/" style="fill-rule:evenodd;clip-rule:evenodd;stroke-linejoin:round;stroke-miterlimit:2;"><path id="Combined-Shape" d="M6.84,13.68c-3.778,0 -6.84,-3.062 -6.84,-6.84c-0,-3.778 3.062,-6.84 6.84,-6.84c3.778,0 6.84,3.062 6.84,6.84c-0,3.778 -3.062,6.84 -6.84,6.84Zm-0.264,-6.01c-0.305,0.304 -0.77,0.38 -1.155,0.187c-0.385,-0.192 -0.85,-0.117 -1.154,0.187l-1.034,1.034c-0.038,0.038 -0.066,0.083 -0.083,0.134c-0.059,0.179 0.037,0.373 0.217,0.432l0.926,0.309c0.889,0.296 1.869,0.065 2.532,-0.598l2.736,-2.735c0.609,-0.609 0.76,-1.54 0.374,-2.31l-0.432,-0.865c-0.017,-0.033 -0.038,-0.063 -0.064,-0.089c-0.134,-0.134 -0.35,-0.134 -0.484,0l-1.089,1.089c-0.305,0.305 -0.38,0.77 -0.188,1.155c0.193,0.385 0.117,0.85 -0.187,1.155l-0.915,0.915Z" style="fill:#352878;fill-opacity:0.4;"/></svg>