<?xml version="1.0" encoding="UTF-8" standalone="no"?><!DOCTYPE svg PUBLIC "-//W3C//DTD SVG 1.1//EN" "http://www.w3.org/Graphics/SVG/1.1/DTD/svg11.dtd"><svg width="100%" height="100%" viewBox="0 0 19 16" version="1.1" xmlns="http://www.w3.org/2000/svg" xmlns:xlink="http://www.w3.org/1999/xlink" xml:space="preserve" xmlns:serif="http://www.serif.com/" style="fill-rule:evenodd;clip-rule:evenodd;stroke-linejoin:round;stroke-miterlimit:2;"><g opacity="0.8"><path id="Combined-Shape" d="M16.532,4.945c1.145,1.193 1.828,2.195 1.828,2.195c0,0 -4.173,6.12 -9.18,6.12c-0.317,0 -0.624,-0.014 -0.923,-0.04l8.275,-8.275Z" style="fill-rule:nonzero;"/><path id="Combined-Shape1" serif:id="Combined-Shape" d="M11.735,1.525l-2.555,2.555c-1.69,0 -3.06,1.37 -3.06,3.06l-3.543,3.543c-1.812,-1.673 -2.577,-3.543 -2.577,-3.543c0,0 2.504,-6.12 9.18,-6.12c0.884,0 1.742,0.191 2.555,0.505Z" style="fill-rule:nonzero;"/><path id="Rectangle" d="M15.846,0l-13.704,13.704l1.442,1.442l13.704,-13.704l-1.442,-1.442Z" style="fill-opacity:0.3;"/></g></svg>