<?xml version="1.0" encoding="UTF-8" standalone="no"?><!DOCTYPE svg PUBLIC "-//W3C//DTD SVG 1.1//EN" "http://www.w3.org/Graphics/SVG/1.1/DTD/svg11.dtd"><svg width="100%" height="100%" viewBox="0 0 17 17" version="1.1" xmlns="http://www.w3.org/2000/svg" xmlns:xlink="http://www.w3.org/1999/xlink" xml:space="preserve" xmlns:serif="http://www.serif.com/" style="fill-rule:evenodd;clip-rule:evenodd;stroke-linejoin:round;stroke-miterlimit:2;"><path d="M5.779,16.114c-0.381,-0.12 -0.756,-0.271 -1.125,-0.452l2.715,-3.107l-1.466,-1.312l-2.922,3.347c-0.34,-0.276 -0.651,-0.573 -0.933,-0.891l3.116,-3.607c0,0 2.393,0.485 3.376,0.569c1.127,0.095 2.013,0.041 2.783,-0.453c0.663,-0.426 0.984,-1.108 1.142,-1.463c0.073,-0.165 0.178,-0.424 -0.108,-0.719c-0.074,-0.076 -2.453,-2.189 -2.453,-2.189l3.43,-3.97c1.475,1.189 2.415,2.757 2.82,4.703c0.472,2.26 0.091,4.334 -1.141,6.221c-1.236,1.866 -2.957,3.029 -5.162,3.489c-0.604,0.125 -1.195,0.188 -1.774,0.188l0.923,-1.057l-1.474,-1.281l-1.747,1.984Zm-3.094,-14.011l7.401,6.478c0,-0 0.044,0.163 -0.337,0.164c-0.43,0.001 -1.5,-0.144 -1.944,-0.218c-1.044,-0.174 -2.988,-0.559 -3.315,-0.624l-3.566,4.133c-0.327,-0.653 -0.57,-1.366 -0.731,-2.139c-0.467,-2.24 -0.085,-4.304 1.147,-6.191c0.398,-0.608 0.846,-1.143 1.345,-1.603Zm1.627,-1.147c0.666,-0.348 1.394,-0.604 2.184,-0.769c1.841,-0.384 3.569,-0.176 5.186,0.622l-3.234,3.752l-4.136,-3.605Z" style="fill-opacity:0.8;fill-rule:nonzero;"/></svg>