<?xml version="1.0" encoding="UTF-8" standalone="no"?><!DOCTYPE svg PUBLIC "-//W3C//DTD SVG 1.1//EN" "http://www.w3.org/Graphics/SVG/1.1/DTD/svg11.dtd"><svg width="100%" height="100%" viewBox="0 0 21 21" version="1.1" xmlns="http://www.w3.org/2000/svg" xmlns:xlink="http://www.w3.org/1999/xlink" xml:space="preserve" xmlns:serif="http://www.serif.com/" style="fill-rule:evenodd;clip-rule:evenodd;stroke-linejoin:round;stroke-miterlimit:2;"><g><rect id="Shape" x="0" y="0" width="20.88" height="20.88" style="fill:none;"/><path id="Combined-Shape" d="M15.66,6.96l-1.74,-0c-0.48,-0 -0.87,-0.39 -0.87,-0.87c0,-0.48 0.39,-0.87 0.87,-0.87l1.74,-0l0,-1.74c0,-0.48 0.39,-0.87 0.87,-0.87c0.48,-0 0.87,0.39 0.87,0.87l0,1.74l1.74,-0c0.48,-0 0.87,0.39 0.87,0.87c0,0.48 -0.39,0.87 -0.87,0.87l-1.74,-0l0,1.74c0,0.48 -0.39,0.87 -0.87,0.87c-0.48,-0 -0.87,-0.39 -0.87,-0.87l0,-1.74Zm-7.83,2.61c-1.922,-0 -3.48,-1.558 -3.48,-3.48c0,-1.922 1.558,-3.48 3.48,-3.48c1.922,-0 3.48,1.558 3.48,3.48c0,1.922 -1.558,3.48 -3.48,3.48Z" style="fill-opacity:0.3;fill-rule:nonzero;"/><path id="Mask-Copy" d="M0.001,17.573c0.337,-4.152 3.707,-6.263 7.815,-6.263c4.165,-0 7.587,1.995 7.842,6.264c0.01,0.17 0,0.696 -0.653,0.696l-14.372,-0c-0.218,-0 -0.651,-0.471 -0.632,-0.697Z" style="fill-rule:nonzero;"/></g></svg>