<?xml version="1.0" encoding="UTF-8" standalone="no"?><!DOCTYPE svg PUBLIC "-//W3C//DTD SVG 1.1//EN" "http://www.w3.org/Graphics/SVG/1.1/DTD/svg11.dtd"><svg width="100%" height="100%" viewBox="0 0 18 18" version="1.1" xmlns="http://www.w3.org/2000/svg" xmlns:xlink="http://www.w3.org/1999/xlink" xml:space="preserve" xmlns:serif="http://www.serif.com/" style="fill-rule:evenodd;clip-rule:evenodd;stroke-linejoin:round;stroke-miterlimit:2;"><path d="M8.52,17.064c4.723,-0 8.52,-3.825 8.52,-8.517c-0,-4.692 -3.797,-8.547 -8.52,-8.547c-4.723,-0 -8.52,3.825 -8.52,8.517c-0,4.692 3.797,8.547 8.52,8.547Zm2.601,-12.342c0.747,-0 1.375,0.627 1.375,1.374c-0,0.748 -0.628,1.375 -1.375,1.375c-0.748,0 -1.375,-0.627 -1.375,-1.375c-0,-0.747 0.627,-1.374 1.375,-1.374Zm0.628,5.17c0.358,-0 0.627,0.328 0.568,0.657c-0.299,1.823 -1.884,3.198 -3.797,3.198c-1.913,-0 -3.498,-1.375 -3.797,-3.198c-0.059,-0.358 0.18,-0.657 0.568,-0.657l6.458,-0Zm-5.83,-5.17c0.748,-0 1.375,0.627 1.375,1.374c0,0.748 -0.627,1.375 -1.375,1.375c-0.747,0 -1.375,-0.627 -1.375,-1.375c-0,-0.747 0.598,-1.374 1.375,-1.374Z" style="fill:#6f6f6f;fill-rule:nonzero;"/></svg>