<?xml version="1.0" encoding="UTF-8" standalone="no"?><!DOCTYPE svg PUBLIC "-//W3C//DTD SVG 1.1//EN" "http://www.w3.org/Graphics/SVG/1.1/DTD/svg11.dtd"><svg width="100%" height="100%" viewBox="0 0 16 16" version="1.1" xmlns="http://www.w3.org/2000/svg" xmlns:xlink="http://www.w3.org/1999/xlink" xml:space="preserve" xmlns:serif="http://www.serif.com/" style="fill-rule:evenodd;clip-rule:evenodd;stroke-linejoin:round;stroke-miterlimit:2;"><path d="M5.61,15.645c-0.369,-0.117 -0.733,-0.264 -1.091,-0.44l2.635,-3.016l-1.423,-1.274l-2.837,3.249c-0.33,-0.268 -0.632,-0.556 -0.906,-0.864l3.026,-3.502c-0,0 2.323,0.471 3.278,0.552c1.093,0.093 1.954,0.041 2.701,-0.439c0.644,-0.414 0.955,-1.077 1.108,-1.421c0.071,-0.16 0.174,-0.412 -0.104,-0.698c-0.072,-0.073 -2.381,-2.125 -2.381,-2.125l3.33,-3.854c1.431,1.154 2.344,2.676 2.737,4.565c0.458,2.195 0.089,4.208 -1.108,6.04c-1.2,1.812 -2.871,2.941 -5.011,3.387c-0.586,0.122 -1.16,0.183 -1.723,0.183l0.897,-1.027l-1.431,-1.243l-1.697,1.927Zm-3.004,-13.603l7.186,6.289c0,-0 0.043,0.158 -0.327,0.159c-0.418,0.001 -1.456,-0.14 -1.887,-0.211c-1.014,-0.169 -2.901,-0.544 -3.218,-0.607l-3.463,4.013c-0.317,-0.634 -0.554,-1.326 -0.71,-2.077c-0.453,-2.175 -0.082,-4.178 1.114,-6.01c0.386,-0.591 0.821,-1.109 1.305,-1.556Zm1.58,-1.114c0.647,-0.338 1.353,-0.587 2.121,-0.747c1.787,-0.372 3.465,-0.171 5.034,0.605l-3.139,3.642l-4.016,-3.5Z" style="fill:#ccc2ff;fill-rule:nonzero;"/></svg>