<?xml version="1.0" encoding="UTF-8" standalone="no"?>
<!DOCTYPE svg PUBLIC "-//W3C//DTD SVG 1.1//EN" "http://www.w3.org/Graphics/SVG/1.1/DTD/svg11.dtd">
<svg width="100%" height="100%" viewBox="0 0 147 148" version="1.1" xmlns="http://www.w3.org/2000/svg" xmlns:xlink="http://www.w3.org/1999/xlink" xml:space="preserve" xmlns:serif="http://www.serif.com/" style="fill-rule:evenodd;clip-rule:evenodd;stroke-linejoin:round;stroke-miterlimit:2;">
    <g transform="matrix(1,0,0,1,-519.16,-36457.7)">
        <g transform="matrix(1.48503,0,0,1.48502,-16280.1,27888.1)">
            <path d="M11347.3,5867.92C11345,5867.19 11342.7,5866.28 11340.5,5865.19L11356.8,5846.45L11348,5838.53L11330.4,5858.72C11328.3,5857.06 11326.5,5855.27 11324.7,5853.35L11343.5,5831.59C11343.5,5831.59 11358,5834.52 11363.9,5835.02C11370.7,5835.6 11376.1,5835.27 11380.7,5832.29C11384.7,5829.72 11386.6,5825.6 11387.6,5823.46C11388,5822.47 11388.7,5820.91 11386.9,5819.13C11386.5,5818.67 11372.1,5805.92 11372.1,5805.92L11392.8,5781.97C11401.7,5789.15 11407.4,5798.6 11409.8,5810.34C11412.7,5823.98 11410.4,5836.49 11403,5847.87C11395.5,5859.13 11385.1,5866.15 11371.8,5868.92C11368.2,5869.68 11364.6,5870.05 11361.1,5870.05L11366.7,5863.67L11357.8,5855.95L11347.3,5867.92ZM11328.6,5783.4L11373.2,5822.48C11373.2,5822.48 11373.5,5823.46 11371.2,5823.46C11368.6,5823.47 11362.2,5822.6 11359.5,5822.15C11353.2,5821.1 11341.5,5818.78 11339.5,5818.38L11318,5843.32C11316,5839.38 11314.5,5835.08 11313.6,5830.41C11310.7,5816.9 11313,5804.45 11320.5,5793.07C11322.9,5789.4 11325.6,5786.18 11328.6,5783.4ZM11338.4,5776.48C11342.4,5774.38 11346.8,5772.83 11351.6,5771.84C11362.7,5769.52 11373.1,5770.78 11382.9,5775.59L11363.4,5798.23C11363.4,5798.23 11338.4,5776.48 11338.4,5776.48Z" style="fill:rgb(255,0,5);fill-rule:nonzero;"/>
        </g>
    </g>
</svg>
