<?xml version="1.0" encoding="UTF-8" standalone="no"?>
<!DOCTYPE svg PUBLIC "-//W3C//DTD SVG 1.1//EN" "http://www.w3.org/Graphics/SVG/1.1/DTD/svg11.dtd">
<svg width="100%" height="100%" viewBox="0 0 338 72" version="1.1" xmlns="http://www.w3.org/2000/svg" xmlns:xlink="http://www.w3.org/1999/xlink" xml:space="preserve" xmlns:serif="http://www.serif.com/" style="fill-rule:evenodd;clip-rule:evenodd;stroke-linejoin:round;stroke-miterlimit:2;">
    <g transform="matrix(1,0,0,1,-2936.65,-36411.3)">
        <g transform="matrix(0.898479,0,0,0.92774,316.021,18801.2)">
            <g transform="matrix(0.936067,0,0,0.936087,2685.4,18275.9)">
                <g transform="matrix(0.734256,0,0,0.734256,-8059.06,-3481.61)">
                    <path d="M11347.3,5867.92C11345,5867.19 11342.7,5866.28 11340.5,5865.19L11356.8,5846.45L11348,5838.53L11330.4,5858.72C11328.3,5857.06 11326.5,5855.27 11324.7,5853.35L11343.5,5831.59C11343.5,5831.59 11358,5834.52 11363.9,5835.02C11370.7,5835.6 11376.1,5835.27 11380.7,5832.29C11384.7,5829.72 11386.6,5825.6 11387.6,5823.46C11388,5822.47 11388.7,5820.91 11386.9,5819.13C11386.5,5818.67 11372.1,5805.92 11372.1,5805.92L11392.8,5781.97C11401.7,5789.15 11407.4,5798.6 11409.8,5810.34C11412.7,5823.98 11410.4,5836.49 11403,5847.87C11395.5,5859.13 11385.1,5866.15 11371.8,5868.92C11368.2,5869.68 11364.6,5870.05 11361.1,5870.05L11366.7,5863.67L11357.8,5855.95L11347.3,5867.92ZM11328.6,5783.4L11373.2,5822.48C11373.2,5822.48 11373.5,5823.46 11371.2,5823.46C11368.6,5823.47 11362.2,5822.6 11359.5,5822.15C11353.2,5821.1 11341.5,5818.78 11339.5,5818.38L11318,5843.32C11316,5839.38 11314.5,5835.08 11313.6,5830.41C11310.7,5816.9 11313,5804.45 11320.5,5793.07C11322.9,5789.4 11325.6,5786.18 11328.6,5783.4ZM11338.4,5776.48C11342.4,5774.38 11346.8,5772.83 11351.6,5771.84C11362.7,5769.52 11373.1,5770.78 11382.9,5775.59L11363.4,5798.23C11363.4,5798.23 11338.4,5776.48 11338.4,5776.48Z" style="fill:rgb(255,0,5);fill-rule:nonzero;"/>
                </g>
                <g transform="matrix(0.734256,0,0,0.734256,-8054.65,-3482.39)">
                    <path d="M11598.5,5793.44C11600.1,5791.75 11602.2,5790.23 11604.8,5788.89C11608.3,5787.1 11612.2,5786.19 11616.5,5786.19C11625.4,5786.19 11632.8,5789.63 11638.9,5796.5C11644.9,5803.34 11647.9,5811.5 11647.9,5821.01C11647.9,5830.51 11644.9,5838.67 11638.9,5845.51C11632.8,5852.38 11625.4,5855.81 11616.5,5855.81C11612.2,5855.81 11608.3,5854.91 11604.8,5853.12C11602.2,5851.78 11600.1,5850.26 11598.5,5848.57L11598.5,5881.59L11579,5881.59L11579,5787.63L11598.5,5787.63L11598.5,5793.44ZM11458.1,5848.61C11454.1,5853.4 11448.4,5855.81 11441.1,5855.81C11433.1,5855.81 11426.9,5853.1 11422.5,5847.7C11418.1,5842.36 11415.8,5835.2 11415.8,5826.21L11415.8,5787.63L11435.3,5787.63C11435.3,5787.63 11435.3,5823.22 11435.3,5823.22C11435.3,5829.11 11436.5,5833.26 11439.1,5835.62C11440.7,5837.14 11442.9,5837.88 11445.6,5837.88C11449.5,5837.88 11452.5,5836.43 11454.7,5833.52C11457,5830.51 11458.1,5826.07 11458.1,5820.22L11458.1,5787.63L11477.6,5787.63L11477.6,5854.38L11458.1,5854.38L11458.1,5848.61ZM11709,5845.81C11715.9,5839.05 11719.3,5830.78 11719.3,5821.01C11719.3,5811.31 11715.9,5803.09 11709,5796.33C11702.2,5789.57 11693.9,5786.19 11684.2,5786.19C11674.5,5786.19 11666.3,5789.57 11659.4,5796.33C11652.6,5803.09 11649.1,5811.31 11649.1,5821.01C11649.1,5830.79 11652.6,5839.03 11659.4,5845.75C11666.3,5852.46 11674.5,5855.81 11684.2,5855.81C11693.9,5855.81 11702.2,5852.48 11709,5845.81L11709,5845.81ZM11834.5,5787.63L11852.8,5787.63L11852.8,5804.91L11834.5,5804.91L11834.5,5827.25C11834.5,5830.96 11835.2,5833.61 11836.8,5835.18C11838.4,5836.76 11841.1,5837.48 11844.7,5837.48C11847.4,5837.48 11849.7,5837.12 11851.7,5836.37L11852.8,5835.94L11852.8,5853.52L11852.2,5853.69C11849,5854.67 11845.2,5855.16 11840.7,5855.16C11833.1,5855.16 11827,5853.07 11822.2,5848.91C11817.4,5844.72 11815,5838.69 11815,5830.77L11815,5769.53L11834.5,5769.53L11834.5,5787.63ZM11503.9,5793.42C11508,5788.62 11514,5786.19 11521.7,5786.19C11529.8,5786.19 11536.1,5788.89 11540.7,5794.23C11545.3,5799.53 11547.7,5806.59 11547.7,5815.41L11547.7,5854.38L11528.2,5854.38L11528.2,5818.4C11528.2,5813.85 11527.2,5810.3 11525.3,5807.77C11523.5,5805.34 11520.9,5804.13 11517.5,5804.13C11513.5,5804.13 11510.2,5805.59 11507.7,5808.53C11505.1,5811.53 11503.9,5815.95 11503.9,5821.79L11503.9,5854.38L11484.4,5854.38L11484.4,5787.63L11503.9,5787.63L11503.9,5793.42ZM11553.6,5854.38L11573.1,5854.38L11573.1,5787.63L11553.6,5787.63L11553.6,5854.38ZM11766.7,5793.42C11770.9,5788.62 11776.8,5786.19 11784.5,5786.19C11792.6,5786.19 11798.9,5788.89 11803.6,5794.23C11808.2,5799.53 11810.5,5806.59 11810.5,5815.41L11810.5,5854.38L11791,5854.38L11791,5818.4C11791,5813.85 11790.1,5810.3 11788.1,5807.77C11786.3,5805.34 11783.7,5804.13 11780.4,5804.13C11776.3,5804.13 11773,5805.59 11770.5,5808.53C11768,5811.53 11766.7,5815.95 11766.7,5821.79L11766.7,5854.38L11747.2,5854.38L11747.2,5787.63L11766.7,5787.63L11766.7,5793.42ZM11721.8,5854.38L11741.3,5854.38L11741.3,5787.63L11721.8,5787.63L11721.8,5854.38ZM11447.4,5854.26L11447.4,5854.27C11447.4,5854.26 11447.5,5854.25 11447.5,5854.24L11447.4,5854.26ZM11447.8,5854.16C11447.7,5854.18 11447.7,5854.2 11447.6,5854.22L11447.7,5854.2C11447.7,5854.19 11447.7,5854.19 11447.7,5854.18L11447.8,5854.16ZM11529,5853.55L11546.8,5853.55L11529,5853.55ZM11459,5853.55L11476.8,5853.55L11459,5853.55ZM11485.2,5853.55L11503.1,5853.55L11485.2,5853.55ZM11450.5,5853.23C11450.5,5853.26 11450.4,5853.29 11450.3,5853.32L11450.4,5853.29C11450.4,5853.28 11450.4,5853.27 11450.5,5853.26L11450.5,5853.23ZM11451.8,5852.63C11451.7,5852.69 11451.6,5852.74 11451.5,5852.8L11451.5,5852.77C11451.6,5852.73 11451.7,5852.7 11451.7,5852.66L11451.8,5852.63ZM11456,5849.69C11454.7,5850.83 11453.4,5851.78 11451.9,5852.56L11452,5852.52C11453.4,5851.77 11454.7,5850.84 11455.9,5849.74L11456,5849.69ZM11456.2,5849.41C11456.2,5849.49 11456.1,5849.56 11456,5849.63L11456.1,5849.58C11456.1,5849.54 11456.2,5849.51 11456.2,5849.47L11456.2,5849.41ZM11457.5,5848.08C11457.1,5848.53 11456.7,5848.95 11456.3,5849.36L11456.4,5849.3C11456.7,5848.94 11457.1,5848.55 11457.4,5848.14L11457.5,5848.08ZM11457.6,5847.9C11457.6,5847.94 11457.6,5847.98 11457.5,5848.02L11457.6,5847.96L11457.6,5847.9ZM11457.8,5847.77C11457.8,5847.75 11457.8,5847.73 11457.8,5847.71L11457.9,5847.65L11457.8,5847.71L11457.8,5847.77ZM11458.3,5847.14C11458.2,5847.18 11458.2,5847.22 11458.2,5847.27L11458.2,5847.2L11458.3,5847.14ZM11459,5846.13C11458.8,5846.43 11458.6,5846.72 11458.4,5847.01L11458.4,5846.94C11458.6,5846.68 11458.8,5846.4 11459,5846.13ZM11442.6,5838.39C11443,5838.48 11443.4,5838.55 11443.8,5838.6C11443.4,5838.55 11443,5838.48 11442.7,5838.4L11442.6,5838.39ZM11418.4,5838.51C11418.4,5838.51 11418.4,5838.55 11418.4,5838.55L11418.4,5838.51ZM11442.2,5838.29C11442.3,5838.31 11442.3,5838.32 11442.4,5838.33L11442.5,5838.35C11442.4,5838.32 11442.3,5838.3 11442.2,5838.27L11442.2,5838.29ZM11441.1,5837.91C11441.4,5838.03 11441.7,5838.14 11442,5838.23L11441.9,5838.21C11441.7,5838.13 11441.4,5838.04 11441.2,5837.94L11441.1,5837.91ZM11601.2,5833.2C11604.1,5836.33 11607.9,5837.88 11612.6,5837.88C11617.3,5837.88 11621.1,5836.33 11623.9,5833.2C11626.8,5830.05 11628.2,5825.98 11628.2,5821.01C11628.2,5816.03 11626.8,5811.96 11623.9,5808.81C11621.1,5805.68 11617.3,5804.13 11612.6,5804.13C11607.9,5804.13 11604.2,5805.68 11601.3,5808.81C11598.5,5811.96 11597,5816.03 11597,5821.01C11597,5825.98 11598.4,5830.05 11601.2,5833.2ZM11418.2,5837.86L11418.2,5837.87L11418.2,5837.86ZM11684.2,5837.48C11679.8,5837.48 11676.1,5835.95 11673.2,5832.86C11670.2,5829.76 11668.8,5825.8 11668.8,5821.01C11668.8,5816.2 11670.2,5812.25 11673.2,5809.15C11676.1,5806.06 11679.8,5804.52 11684.2,5804.52C11688.6,5804.52 11692.2,5806.06 11695.1,5809.15C11698.1,5812.25 11699.5,5816.2 11699.5,5821.01C11699.5,5825.8 11698.1,5829.76 11695.1,5832.86C11692.2,5835.95 11688.6,5837.48 11684.2,5837.48ZM11435.4,5830.71C11435.6,5831.46 11435.8,5832.16 11436.1,5832.81L11436.1,5832.73C11435.8,5832.13 11435.6,5831.48 11435.4,5830.79L11435.4,5830.71ZM11435.3,5830.27C11435.3,5830.38 11435.3,5830.5 11435.4,5830.62L11435.3,5830.53C11435.3,5830.47 11435.3,5830.41 11435.3,5830.35L11435.3,5830.27ZM11416.7,5827.23C11416.7,5827.68 11416.7,5828.11 11416.7,5828.55C11416.7,5828.11 11416.7,5827.68 11416.7,5827.23Z" style="fill:white;"/>
                </g>
            </g>
        </g>
    </g>
</svg>
